<?xml version="1.0" encoding="utf-8"?>
<!-- Generator: Adobe Illustrator 16.0.0, SVG Export Plug-In . SVG Version: 6.00 Build 0)  -->
<!DOCTYPE svg PUBLIC "-//W3C//DTD SVG 1.1//EN" "http://www.w3.org/Graphics/SVG/1.1/DTD/svg11.dtd">
<svg version="1.1" id="Layer_1" xmlns="http://www.w3.org/2000/svg" xmlns:xlink="http://www.w3.org/1999/xlink" x="0px" y="0px"
	 width="80px" height="16px" viewBox="0 0 80 16" enable-background="new 0 0 80 16" xml:space="preserve">
<g transform="translate(16, 0)">
	<path fill="#FFFFFF" d="M14.609,1H0.974C0.39,1,0,1.4,0,2v12c0,0.6,0.39,1,0.974,1h13.635c0.584,0,0.974-0.4,0.974-1V2
		C15.583,1.4,15.194,1,14.609,1z M13.636,13H1.948V6.7l5.357,3.1C7.5,10,7.597,10,7.792,10s0.292,0,0.487-0.1l5.357-3.2V13z
		 M13.636,4.4L7.792,7.8L1.948,4.4V3h11.688V4.4z"/>
</g>
<g transform="translate(32, 0)">
	<path fill="#FFFFFF" d="M18.055,16h10c0.6,0,1-0.4,1-1V7.5l0.301,0.3c0.199,0.1,0.5,0.2,0.699,0.2c0.301,0,0.6-0.1,0.801-0.3
		c0.399-0.4,0.299-1-0.101-1.4l-7-6c-0.399-0.3-0.899-0.3-1.3,0l-3.4,2.8V2c0-0.6-0.4-1-1-1s-1,0.4-1,1v2.8l-1.699,1.4
		c-0.4,0.4-0.5,1-0.101,1.4s1,0.5,1.399,0.1l0.4-0.2V15C17.055,15.6,17.455,16,18.055,16z M19.055,5.7l4-3.4l4,3.5
		c0,0.1,0,0.1,0,0.2v8h-2v-3c0-0.6-0.4-1-1-1h-2c-0.6,0-1,0.4-1,1v3h-2V5.7z"/>
	<rect x="21.055" y="6" fill="#FFFFFF" width="4" height="2"/>
</g>
<g transform="translate(64, 0)">
	<path fill="#FFFFFF" d="M6,0H1C0.4,0,0,0.4,0,1v5c0,0.6,0.4,1,1,1h5c0.6,0,1-0.4,1-1V1C7,0.4,6.6,0,6,0z M5,5H2V2h3V5z"/>
	<path fill="#FFFFFF" d="M15,0h-5C9.4,0,9,0.4,9,1v5c0,0.6,0.4,1,1,1h5c0.6,0,1-0.4,1-1V1C16,0.4,15.6,0,15,0z M14,5h-3V2h3V5z"/>
	<path fill="#FFFFFF" d="M6,9H1c-0.6,0-1,0.4-1,1v5c0,0.6,0.4,1,1,1h5c0.6,0,1-0.4,1-1v-5C7,9.4,6.6,9,6,9z M5,14H2v-3h3V14z"/>
	<path fill="#FFFFFF" d="M15,9h-5c-0.6,0-1,0.4-1,1v5c0,0.6,0.4,1,1,1h5c0.6,0,1-0.4,1-1v-5C16,9.4,15.6,9,15,9z M14,14h-3v-3h3V14z
		"/>
</g>
<g>
	<path fill="#FFFFFF" d="M5.804,7.379c0-0.387-0.278-0.709-0.609-0.709H3.953c-0.332,0-0.611,0.322-0.611,0.709v1.437
		c0,0.387,0.279,0.709,0.611,0.709h1.242c0.331,0,0.609-0.322,0.609-0.709V7.379z M5.105,8.695H4.041V7.46h1.064V8.695z"/>
	<path fill="#FFFFFF" d="M5.194,10.299H3.952c-0.332,0-0.612,0.322-0.612,0.707v1.439c0,0.385,0.28,0.709,0.612,0.709h1.242
		c0.331,0,0.61-0.324,0.61-0.709v-1.439C5.804,10.621,5.525,10.299,5.194,10.299z M5.105,12.342H4.041v-1.232h1.064V12.342z"/>
	<path fill="#FFFFFF" d="M2.501,13.943c-0.488,0-0.875-0.447-0.875-1.014V6.143h12.17v0.669c0.244,0.122,0.489,0.264,0.717,0.444
		V4.421c0-1.015-0.717-1.844-1.59-1.844h-1.068V2.253c0-0.689-0.471-1.236-1.065-1.236c-0.594,0-1.065,0.547-1.065,1.236v0.324
		H5.562V2.253c0-0.689-0.473-1.236-1.066-1.236S3.431,1.585,3.431,2.273v0.325H2.503c-0.875,0-1.592,0.83-1.592,1.843v8.488
		c0,1.016,0.717,1.844,1.592,1.844h6.661c-0.21-0.242-0.401-0.523-0.56-0.828H2.501V13.943z M10.333,2.272
		c0-0.283,0.21-0.526,0.455-0.526s0.455,0.244,0.455,0.526V3.57c0,0.283-0.21,0.527-0.455,0.527s-0.455-0.244-0.455-0.527V2.272z
		 M4.041,2.272c0-0.283,0.208-0.526,0.453-0.526s0.455,0.244,0.455,0.526V3.57c0,0.283-0.21,0.527-0.455,0.527
		S4.041,3.853,4.041,3.57V2.272z M1.626,4.421c0-0.569,0.387-1.015,0.875-1.015h0.928V3.57c0,0.689,0.472,1.237,1.064,1.237
		c0.596,0,1.066-0.548,1.066-1.237V3.408h4.162v0.163c0,0.689,0.472,1.237,1.065,1.237c0.595,0,1.065-0.548,1.065-1.237V3.408h1.068
		c0.488,0,0.872,0.446,0.872,1.015v0.992H1.626V4.421z"/>
	<path fill="#FFFFFF" d="M12.171,6.913c-2.1,0-3.813,1.984-3.813,4.416c0.018,2.434,1.713,4.398,3.813,4.398
		c2.096,0,3.812-1.986,3.812-4.418C15.982,8.896,14.267,6.913,12.171,6.913z M12.171,14.996c-1.75,0-3.184-1.66-3.184-3.688
		c0-2.023,1.434-3.687,3.184-3.687c1.747,0,3.182,1.664,3.182,3.687C15.351,13.354,13.935,14.996,12.171,14.996z"/>
	<path fill="#FFFFFF" d="M13.621,10.926h-1.102V8.797c0-0.223-0.157-0.403-0.35-0.403c-0.193,0-0.351,0.181-0.351,0.403v2.512
		c0,0.225,0.157,0.406,0.351,0.406h1.434c0.191,0,0.351-0.182,0.351-0.406C13.954,11.086,13.812,10.926,13.621,10.926z"/>
	<path fill="#FFFFFF" d="M7.956,11.107c0.019-0.285,0.036-0.547,0.088-0.811H7.099c-0.332,0-0.611,0.322-0.611,0.709v1.438
		c0,0.387,0.279,0.709,0.611,0.709h1.153c-0.088-0.264-0.157-0.525-0.21-0.811H7.187v-1.234H7.956z"/>
	<path fill="#FFFFFF" d="M8.953,7.379c0-0.387-0.279-0.709-0.611-0.709h-1.24c-0.334,0-0.612,0.322-0.612,0.709v1.437
		c0,0.387,0.278,0.709,0.612,0.709h1.152C8.427,9.02,8.656,8.574,8.953,8.169V7.379z M8.253,8.695H7.187V7.46h1.066V8.695z"/>
</g>
<g>
	<g>
		<path fill="#FFFFFF" d="M43.637,6.522c-0.473,0.539-0.941,1.078-1.412,1.615c-0.629,0.72-1.258,1.441-1.886,2.161
			c-0.045,0.052-0.09,0.103-0.134,0.154c0.104,0,0.212,0,0.318,0c-0.448-0.513-0.896-1.024-1.343-1.536
			c-0.679-0.779-1.358-1.555-2.036-2.333c-0.115-0.133-0.231-0.265-0.348-0.398c0,0.123,0,0.243,0,0.365
			c0.471-0.539,0.942-1.077,1.411-1.615c0.629-0.72,1.258-1.44,1.886-2.161c0.045-0.052,0.091-0.103,0.135-0.154
			c-0.107,0-0.213,0-0.318,0c0.448,0.512,0.895,1.024,1.342,1.537c0.676,0.778,1.357,1.555,2.037,2.333
			c0.113,0.133,0.229,0.265,0.348,0.397c0.204,0.236,0.521-0.128,0.317-0.363c-0.449-0.512-0.897-1.025-1.343-1.538
			c-0.68-0.776-1.358-1.554-2.036-2.331c-0.115-0.133-0.23-0.266-0.347-0.398c-0.087-0.099-0.231-0.099-0.318,0
			c-0.47,0.538-0.94,1.076-1.411,1.616c-0.628,0.72-1.257,1.439-1.886,2.161c-0.044,0.05-0.089,0.102-0.133,0.152
			c-0.086,0.1-0.086,0.266,0,0.365c0.447,0.512,0.894,1.025,1.34,1.537c0.68,0.776,1.359,1.555,2.037,2.331
			c0.116,0.133,0.232,0.267,0.348,0.399c0.085,0.099,0.231,0.099,0.318,0c0.468-0.539,0.938-1.077,1.408-1.616
			c0.629-0.72,1.256-1.44,1.887-2.159c0.045-0.052,0.088-0.104,0.136-0.155C44.156,6.651,43.839,6.287,43.637,6.522z"/>
	</g>
</g>
<g>
	<g>
		<path fill="#FFFFFF" d="M41.73,12.421c-0.043,0.048-0.039,0.045-0.082,0.076c-0.019,0.015-0.037,0.026-0.059,0.039
			c-0.001,0.001-0.064,0.034-0.025,0.016c-0.041,0.021-0.086,0.031-0.129,0.042c-0.067,0.016,0.043-0.003-0.026,0.004
			C41.38,12.6,41.35,12.6,41.32,12.6c-0.002,0-0.073-0.011-0.026-0.002c-0.022-0.004-0.044-0.011-0.063-0.015
			c-0.021-0.006-0.043-0.015-0.064-0.022c-0.066-0.023,0.036,0.022-0.025-0.013c-0.101-0.054-0.138-0.092-0.209-0.188
			c0.026,0.035-0.02-0.031-0.019-0.031c-0.013-0.021-0.024-0.044-0.034-0.067c0-0.001-0.029-0.077-0.016-0.03
			c-0.008-0.023-0.014-0.049-0.021-0.072c-0.006-0.023-0.011-0.049-0.016-0.074c-0.017-0.078,0.004,0.051-0.004-0.032
			c-0.003-0.024-0.003-0.049-0.003-0.073c0-0.011,0.011-0.107,0.003-0.057c0.008-0.05,0.02-0.102,0.034-0.146
			c0.021-0.075-0.02,0.039,0.01-0.033c0.011-0.022,0.021-0.047,0.033-0.066c0.011-0.021,0.022-0.044,0.037-0.066
			c-0.022,0.037,0.025-0.028,0.023-0.028c0.007-0.007,0.012-0.015,0.02-0.021c0.149-0.172,0.297-0.346,0.451-0.519
			c0.695-0.8,1.394-1.599,2.092-2.396c0.283-0.324,0.565-0.65,0.852-0.975c0.064-0.077,0.134-0.154,0.2-0.231
			c0.021-0.023,0.041-0.044,0.059-0.065c0.035-0.036,0.132-0.095,0.177-0.111c0.021-0.008,0.041-0.014,0.063-0.02
			c0.004,0,0.074-0.012,0.027-0.007c0.052-0.007,0.104-0.005,0.152,0c-0.046-0.004,0.023,0.007,0.028,0.007
			c0.021,0.004,0.042,0.013,0.063,0.02c0,0,0.067,0.03,0.029,0.01c0.02,0.011,0.039,0.022,0.061,0.035
			c0.039,0.026,0.068,0.052,0.084,0.066c0.018,0.017,0.035,0.037,0.052,0.056c0.011,0.014,0.021,0.027,0.03,0.041
			c-0.012-0.019-0.01-0.014,0.008,0.01c0.025,0.043,0.048,0.089,0.066,0.136c-0.019-0.044,0.008,0.031,0.008,0.034
			c0.006,0.022,0.013,0.048,0.018,0.073c0,0.004,0.012,0.085,0.005,0.03c0.003,0.025,0.004,0.05,0.004,0.075
			c0.001,0.027,0,0.052-0.002,0.075c-0.003,0.032-0.003,0.035,0.001,0.008c-0.003,0.017-0.005,0.033-0.008,0.05
			c-0.005,0.024-0.012,0.048-0.018,0.073c0,0.002-0.025,0.078-0.008,0.033c-0.019,0.048-0.041,0.091-0.066,0.136
			c-0.014,0.02-0.021,0.033-0.055,0.069c0,0.001,0,0.003-0.002,0.003c-0.019,0.017-0.033,0.036-0.049,0.054
			c-0.211,0.241-0.422,0.482-0.634,0.727c-0.711,0.813-1.422,1.629-2.138,2.444C42.268,11.807,41.998,12.113,41.73,12.421
			c-0.203,0.235,0.11,0.599,0.318,0.364c0.454-0.521,0.91-1.045,1.365-1.566c0.663-0.762,1.328-1.521,1.993-2.281
			c0.216-0.252,0.448-0.479,0.524-0.84c0.102-0.497-0.115-1.028-0.512-1.259c-0.376-0.216-0.844-0.132-1.141,0.208
			c-0.465,0.535-0.934,1.069-1.399,1.604c-0.657,0.755-1.317,1.51-1.978,2.266c-0.213,0.243-0.435,0.465-0.506,0.818
			c-0.1,0.481,0.103,0.985,0.473,1.233c0.379,0.252,0.867,0.162,1.179-0.183C42.258,12.553,41.938,12.189,41.73,12.421z"/>
	</g>
</g>
<g>
	<g>
		<path fill="#FFFFFF" d="M35.83,5.662c-0.043,0.049-0.039,0.045-0.081,0.076c-0.02,0.015-0.039,0.026-0.059,0.039
			c-0.001,0.001-0.067,0.034-0.029,0.016c-0.041,0.019-0.083,0.031-0.126,0.041c-0.068,0.017,0.043-0.003-0.027,0.004
			C35.48,5.841,35.45,5.841,35.421,5.84c-0.004,0-0.075-0.009-0.028-0.001c-0.021-0.005-0.043-0.009-0.064-0.016
			c-0.021-0.005-0.042-0.014-0.063-0.021c-0.066-0.026,0.035,0.021-0.029-0.014c-0.099-0.052-0.135-0.09-0.206-0.185
			c0.024,0.034-0.02-0.033-0.02-0.033c-0.013-0.022-0.023-0.045-0.034-0.068c-0.001-0.001-0.029-0.077-0.014-0.03
			c-0.007-0.024-0.013-0.048-0.021-0.073c-0.005-0.024-0.01-0.05-0.015-0.073c-0.015-0.08,0.003,0.048-0.003-0.032
			c-0.003-0.025-0.003-0.05-0.003-0.075c0-0.01,0.009-0.107,0.003-0.058c0.006-0.05,0.018-0.098,0.032-0.147
			c0.02-0.076-0.018,0.04,0.01-0.032c0.01-0.023,0.021-0.045,0.033-0.068c0.01-0.022,0.025-0.044,0.037-0.064
			c-0.022,0.036,0.024-0.031,0.024-0.03c0.005-0.007,0.012-0.014,0.019-0.022c0.151-0.172,0.3-0.345,0.453-0.518
			c0.697-0.798,1.394-1.597,2.091-2.396c0.284-0.324,0.567-0.649,0.85-0.973c0.068-0.078,0.135-0.155,0.203-0.232
			c0.019-0.021,0.039-0.043,0.058-0.065c0.035-0.036,0.131-0.095,0.174-0.111c0.022-0.008,0.042-0.013,0.065-0.019
			C38.977,0.482,39.046,0.47,39,0.478c0.05-0.008,0.103-0.006,0.153,0c-0.047-0.006,0.022,0.004,0.026,0.006
			c0.022,0.005,0.043,0.011,0.065,0.019c0.001,0.001,0.068,0.029,0.029,0.011c0.02,0.01,0.039,0.022,0.061,0.034
			c0.041,0.026,0.069,0.051,0.084,0.065c0.017,0.019,0.033,0.036,0.051,0.057c0.01,0.013,0.02,0.026,0.03,0.039
			c-0.011-0.017-0.009-0.013,0.007,0.012c0.026,0.042,0.046,0.088,0.066,0.135c-0.02-0.045,0.007,0.031,0.008,0.033
			c0.007,0.025,0.011,0.048,0.017,0.074c0.001,0.005,0.012,0.085,0.006,0.032c0.002,0.025,0.002,0.049,0.004,0.075
			c0.001,0.025-0.002,0.05-0.002,0.075c-0.002,0.031-0.002,0.033,0,0.007c-0.002,0.016-0.005,0.033-0.008,0.049
			c-0.005,0.025-0.01,0.048-0.017,0.073c-0.001,0.002-0.027,0.08-0.008,0.033c-0.02,0.049-0.042,0.093-0.066,0.136
			c-0.012,0.021-0.022,0.034-0.055,0.071c-0.001,0.001-0.002,0.001-0.002,0.003c-0.015,0.018-0.031,0.035-0.046,0.052
			c-0.211,0.242-0.422,0.484-0.633,0.726c-0.712,0.815-1.424,1.632-2.136,2.447C36.366,5.048,36.098,5.354,35.83,5.662
			c-0.206,0.235,0.112,0.599,0.318,0.363c0.455-0.521,0.911-1.044,1.368-1.566c0.663-0.76,1.327-1.521,1.991-2.281
			c0.218-0.25,0.451-0.479,0.526-0.842c0.1-0.496-0.116-1.026-0.513-1.256c-0.375-0.217-0.841-0.133-1.139,0.207
			c-0.466,0.535-0.933,1.069-1.398,1.604c-0.658,0.755-1.32,1.51-1.979,2.265c-0.213,0.245-0.433,0.466-0.506,0.82
			c-0.099,0.483,0.101,0.987,0.472,1.235c0.38,0.254,0.868,0.161,1.178-0.185C36.356,5.795,36.038,5.43,35.83,5.662z"/>
	</g>
</g>
<g>
	<g>
		<path fill="#FFFFFF" d="M42.389,4.594c-0.07,0.083-0.146,0.167-0.22,0.251c0.106,0,0.213,0,0.317,0
			c-0.264-0.305-0.531-0.608-0.795-0.912c0,0.12,0,0.242,0,0.363c0.061-0.068,0.119-0.138,0.181-0.206
			c0.011-0.014,0.022-0.025,0.034-0.039c0.007-0.01,0.052-0.055,0.031-0.036c0.017-0.015,0.039-0.027,0.059-0.04
			c0.061-0.039-0.037,0.011,0.027-0.016c0.021-0.01,0.043-0.015,0.065-0.022c0.065-0.018-0.041,0.002,0.024-0.005
			c0.144-0.013,0.254,0.047,0.335,0.206C42.52,4.28,42.493,4.466,42.389,4.594c-0.199,0.24,0.118,0.604,0.318,0.363
			c0.203-0.243,0.279-0.585,0.193-0.909c-0.082-0.307-0.317-0.551-0.594-0.613c-0.258-0.058-0.527,0.033-0.716,0.248
			c-0.069,0.083-0.146,0.167-0.219,0.25c-0.087,0.099-0.087,0.265,0,0.363c0.265,0.304,0.532,0.608,0.796,0.912
			c0.089,0.099,0.23,0.099,0.316,0c0.074-0.083,0.149-0.167,0.222-0.252C42.912,4.722,42.596,4.358,42.389,4.594z"/>
	</g>
</g>
<g>
	<g>
		<path fill="#FFFFFF" d="M37.943,8.227c0.266,0.304,0.531,0.607,0.796,0.912c0-0.121,0-0.242,0-0.363
			c-0.327,0.375-0.654,0.75-0.983,1.125c-0.705,0.808-1.408,1.615-2.114,2.422c-0.666,0.763-1.331,1.525-1.995,2.285
			c-0.188,0.217-0.376,0.432-0.564,0.646c-0.034,0.037-0.068,0.078-0.104,0.118c-0.001,0.002-0.002,0.003-0.003,0.005
			c0,0-0.057,0.055-0.024,0.025c-0.018,0.019-0.039,0.031-0.058,0.043c-0.002,0-0.066,0.033-0.027,0.014
			c-0.027,0.014-0.055,0.021-0.083,0.025c0.044-0.01-0.021,0.002-0.026,0.002c-0.023,0.004-0.044,0-0.064-0.002
			c0.045,0.006-0.021-0.002-0.027-0.002c-0.022-0.008-0.043-0.015-0.062-0.023c0.039,0.016-0.026-0.014-0.028-0.016
			c-0.02-0.012-0.039-0.027-0.057-0.043c0.033,0.026-0.023-0.025-0.023-0.025c-0.025-0.027-0.033-0.041-0.048-0.068
			c-0.093-0.166-0.06-0.354,0.068-0.5c0.047-0.054,0.094-0.107,0.142-0.162c0.205-0.234,0.413-0.474,0.619-0.709
			c0.682-0.779,1.363-1.562,2.045-2.342c0.691-0.792,1.383-1.585,2.075-2.378c0.287-0.329,0.575-0.657,0.863-0.988
			c0.204-0.236-0.114-0.599-0.319-0.362c-0.327,0.374-0.654,0.749-0.982,1.123c-0.705,0.809-1.41,1.614-2.114,2.423
			c-0.666,0.761-1.331,1.521-1.996,2.286c-0.187,0.215-0.375,0.429-0.563,0.644c-0.033,0.04-0.068,0.079-0.104,0.119
			c-0.097,0.112-0.167,0.249-0.208,0.4c-0.078,0.296,0.005,0.597,0.166,0.832c0.278,0.406,0.845,0.399,1.152,0.049
			c0.025-0.03,0.051-0.059,0.076-0.09c0.173-0.197,0.347-0.396,0.52-0.594c0.652-0.748,1.304-1.496,1.957-2.242
			c0.713-0.816,1.425-1.633,2.138-2.448c0.356-0.407,0.711-0.817,1.069-1.226c0-0.002,0.001-0.002,0.003-0.002
			c0.086-0.101,0.086-0.267,0-0.365c-0.265-0.304-0.532-0.607-0.795-0.909C38.056,7.628,37.738,7.991,37.943,8.227z"/>
	</g>
</g>
<g>
	<g>
		<path fill="#FFFFFF" d="M37.093,15.738c0-0.053,0.002-0.104,0.006-0.152c0-0.007,0.008-0.087,0.002-0.033
			c0.003-0.022,0.006-0.049,0.011-0.072c0.017-0.105,0.043-0.207,0.079-0.307c-0.017,0.049,0.01-0.023,0.01-0.027
			c0.009-0.021,0.018-0.043,0.027-0.064c0.021-0.042,0.041-0.084,0.063-0.127c0.021-0.038,0.047-0.079,0.072-0.118
			c-0.029,0.045,0.014-0.021,0.017-0.021c0.017-0.025,0.037-0.049,0.055-0.072c0.125-0.151,0.216-0.229,0.391-0.325
			c0.019-0.012,0.038-0.021,0.058-0.03c-0.043,0.021,0.021-0.008,0.024-0.009c0.041-0.021,0.083-0.032,0.124-0.047
			c0.041-0.013,0.083-0.022,0.125-0.03c0.003-0.002,0.075-0.014,0.026-0.007c0.029-0.003,0.059-0.007,0.088-0.009
			c0.162-0.012,0.326-0.002,0.487-0.002c0.85,0,1.702,0,2.551,0c1.008,0,2.012,0,3.018,0c0.322,0,0.648,0,0.973,0
			c0.078,0,0.156,0,0.233,0c0.012,0,0.022,0,0.032,0c0.022,0,0.047,0,0.068,0c0.023,0.002,0.045,0.004,0.067,0.006
			c0.002,0.002,0.073,0.01,0.026,0.003c0.092,0.015,0.184,0.041,0.272,0.077c0.013,0.005,0.024,0.01,0.038,0.018
			c0.066,0.028-0.038-0.021,0.023,0.012c0.035,0.015,0.064,0.031,0.096,0.053c0.062,0.036,0.121,0.082,0.176,0.128
			c0.021,0.017,0.021,0.019,0.006,0.005c0.016,0.014,0.033,0.029,0.049,0.043c0.026,0.027,0.053,0.055,0.076,0.083
			c0.025,0.028,0.049,0.058,0.071,0.088c0.014,0.017,0.026,0.036,0.04,0.056c-0.028-0.043,0.013,0.021,0.015,0.023
			c0.041,0.064,0.078,0.132,0.11,0.204c0.016,0.035,0.031,0.073,0.045,0.108c-0.01-0.023-0.01-0.021,0.002,0.006
			c0.005,0.023,0.014,0.047,0.021,0.07c0.021,0.075,0.037,0.157,0.051,0.237c0.004,0.017,0.004,0.034,0.008,0.05
			c-0.008-0.055,0.002,0.025,0.002,0.032c0.004,0.05,0.005,0.101,0.005,0.152c0.077-0.087,0.149-0.173,0.226-0.257
			c-0.386,0-0.771,0-1.156,0c-0.907,0-1.816,0-2.723,0c-1.053,0-2.104,0-3.154,0c-0.819,0-1.637,0-2.456,0c-0.235,0-0.469,0-0.704,0
			c-0.124,0-0.225,0.115-0.225,0.257c0,0.14,0.101,0.257,0.225,0.257c0.386,0,0.771,0,1.158,0c0.907,0,1.814,0,2.722,0
			c1.05,0,2.1,0,3.152,0c0.817,0,1.64,0,2.455,0c0.234,0,0.469,0,0.705,0c0.123,0,0.228-0.117,0.226-0.257
			c-0.007-0.906-0.558-1.716-1.332-1.919c-0.229-0.063-0.461-0.051-0.694-0.051c-0.818,0-1.634,0-2.453,0c-1.016,0-2.031,0-3.05,0
			c-0.348,0-0.696,0-1.045,0c-0.202,0-0.408-0.01-0.61,0.022c-0.833,0.135-1.453,0.992-1.458,1.946c0,0.14,0.103,0.257,0.225,0.257
			C36.991,15.995,37.092,15.878,37.093,15.738z"/>
	</g>
</g>
</svg>
