<svg xmlns="http://www.w3.org/2000/svg" xmlns:xlink="http://www.w3.org/1999/xlink" version="1.1" x="0px" y="0px" viewBox="0 0 100 125" style="enable-background:new 0 0 100 100;" xml:space="preserve"><path d="M30,49H16c-1.1,0-2,0.9-2,2v14c0,1.1,0.9,2,2,2h14c1.1,0,2-0.9,2-2V51C32,49.9,31.1,49,30,49z M28,63H18V53h10V63z M30,29  H16c-1.1,0-2,0.9-2,2v14c0,1.1,0.9,2,2,2h14c1.1,0,2-0.9,2-2V31C32,29.9,31.1,29,30,29z M28,43H18V33h10V43z M36,47h14  c1.1,0,2-0.9,2-2V31c0-1.1-0.9-2-2-2H36c-1.1,0-2,0.9-2,2v14C34,46.1,34.9,47,36,47z M38,33h10v10H38V33z M81,46V16c0-1.1-0.9-2-2-2  H68V7c0-1.1-0.9-2-2-2h-6c-1.1,0-2,0.9-2,2v7H48V7c0-1.1-0.9-2-2-2h-6c-1.1,0-2,0.9-2,2v7H28V7c0-1.1-0.9-2-2-2h-6c-1.1,0-2,0.9-2,2  v7H7c-1.1,0-2,0.9-2,2v64c0,1.1,0.9,2,2,2h39.5C51,89.8,59.4,95,69,95c14.3,0,26-11.7,26-26C95,59,89.3,50.3,81,46z M62,9h2v14h-2V9  z M42,9h2v14h-2V9z M22,9h2v14h-2V9z M9,78V18h9v7c0,1.1,0.9,2,2,2h6c1.1,0,2-0.9,2-2v-7h10v7c0,1.1,0.9,2,2,2h6c1.1,0,2-0.9,2-2v-7  h10v7c0,1.1,0.9,2,2,2h6c1.1,0,2-0.9,2-2v-7h9v26.3c-1.6-0.5-3.3-0.9-5-1.1V31c0-1.1-0.9-2-2-2H56c-1.1,0-2,0.9-2,2v14  c0,0.9,0.6,1.6,1.3,1.9c-1.3,0.8-2.6,1.8-3.8,2.9C51.2,49.3,50.6,49,50,49H36c-1.1,0-2,0.9-2,2v14c0,1.1,0.9,2,2,2h7.1  c0,0.7-0.1,1.3-0.1,2c0,3.2,0.6,6.2,1.6,9H9z M68,33v10H58V33H68z M43.7,63H38V53h10v0.7C46,56.4,44.5,59.6,43.7,63z M69,91  c-12.1,0-22-9.9-22-22s9.9-22,22-22s22,9.9,22,22S81.1,91,69,91z M69,50.5c-10.2,0-18.5,8.3-18.5,18.5S58.8,87.5,69,87.5  S87.5,79.2,87.5,69S79.2,50.5,69,50.5z M69,83.5c-8,0-14.5-6.5-14.5-14.5S61,54.5,69,54.5S83.5,61,83.5,69S77,83.5,69,83.5z M79,69  c0,1.1-0.9,2-2,2h-8c-1.1,0-2-0.9-2-2v-8c0-1.1,0.9-2,2-2s2,0.9,2,2v6h6C78.1,67,79,67.9,79,69z"/><text x="0" y="115" fill="#000000" font-size="5px" font-weight="bold" font-family="'Helvetica Neue', Helvetica, Arial-Unicode, Arial, Sans-serif">Created by IconMark</text><text x="0" y="120" fill="#000000" font-size="5px" font-weight="bold" font-family="'Helvetica Neue', Helvetica, Arial-Unicode, Arial, Sans-serif">from the Noun Project</text></svg>