<svg xmlns:dc="http://purl.org/dc/elements/1.1/" xmlns:cc="http://creativecommons.org/ns#" xmlns:rdf="http://www.w3.org/1999/02/22-rdf-syntax-ns#" xmlns:svg="http://www.w3.org/2000/svg" xmlns="http://www.w3.org/2000/svg" xmlns:sodipodi="http://sodipodi.sourceforge.net/DTD/sodipodi-0.dtd" xmlns:inkscape="http://www.inkscape.org/namespaces/inkscape" version="1.1" x="0px" y="0px" viewBox="0 0 100 125"><g transform="translate(0,-952.36218)"><path style="text-indent:0;text-transform:none;direction:ltr;block-progression:tb;baseline-shift:baseline;color:#000000;enable-background:accumulate;" d="m 78.749497,1003.5418 a 2.0002,2.0002 0 0 1 1.07688,0.2828 c 8.49469,5.0797 14.17374,14.3834 14.17374,24.9866 0,0.5647 -0.01028,1.1458 -0.05593,1.7506 a 2.0002,2.0002 0 0 1 -1.99407,1.8494 l -54.120003,0 a 2.0002,2.0002 0 0 1 -1.99687,-1.8869 c -0.0328,-0.58 -0.0431,-1.1484 -0.0431,-1.7131 0,-10.6032 5.67875,-19.9069 14.17344,-24.9866 a 2.0002,2.0002 0 0 1 2.35313,0.22 c 3.35011,2.9699 7.743753,4.7766 12.573433,4.7766 4.84063,0 9.23302,-1.8067 12.58313,-4.7766 a 2.0002,2.0002 0 0 1 1.27625,-0.5028 z m 0.20469,4.4685 c -3.88428,3.0098 -8.77213,4.8109 -14.06407,4.8109 -5.28372,0 -10.170313,-1.8011 -14.054373,-4.8109 -6.56344,4.4384 -10.9101,11.8928 -11.0425,20.4009 l 50.203443,0 c -0.1324,-8.5081 -4.47906,-15.9625 -11.0425,-20.4009 z" fill="#000000" fill-opacity="1" fill-rule="evenodd" stroke="none" marker="none" visibility="visible" display="inline" overflow="visible"/><path style="text-indent:0;text-transform:none;direction:ltr;block-progression:tb;baseline-shift:baseline;color:#000000;enable-background:accumulate;" d="m 64.960117,973.65312 c 8.37946,0 15.22,6.82872 15.22,15.21 0,8.37276 -6.83872,15.20998 -15.22,15.20998 -8.37276,0 -15.210003,-6.83722 -15.210003,-15.20998 0,-8.38128 6.839073,-15.21 15.210003,-15.21 z m 0,4 c -6.20906,0 -11.210003,4.99128 -11.210003,11.21 0,6.20724 5.002773,11.20998 11.210003,11.20998 6.21873,0 11.22,-5.00274 11.22,-11.20998 0,-6.21872 -4.99945,-11.21 -11.22,-11.21 z" fill="#000000" fill-opacity="1" fill-rule="evenodd" stroke="none" marker="none" visibility="visible" display="inline" overflow="visible"/><path style="text-indent:0;text-transform:none;direction:ltr;block-progression:tb;baseline-shift:baseline;color:#000000;enable-background:accumulate;" d="m 42.760744,997.83187 a 2.0002,2.0002 0 0 1 1.07813,0.28437 c 0.86407,0.5184 1.70894,1.0923 2.50874,1.7166 l 3e-4,-3e-4 c 0.37417,0.29096 0.765,0.60216 1.1575,0.95896 a 2.0002,2.0002 0 1 1 -2.69094,2.9597 c -0.2675,-0.2432 -0.57667,-0.4923 -0.9225,-0.7612 a 2.0002,2.0002 0 0 1 -0.003,0 c -0.30279,-0.2365 -0.61837,-0.4659 -0.94094,-0.6885 -3.3186,2.5088 -7.46157,4.0019 -11.93813,4.0019 -4.477111,0 -8.62088,-1.4935 -11.939681,-4.0028 -5.30866,3.6684 -8.850189,9.725 -9.06,16.6328 l 23.57968,0 a 2.0002,2.0002 0 1 1 0,4 l -25.5499995,0 a 2.0002,2.0002 0 0 1 -1.99812,-1.9113 c -0.02,-0.45 -0.0419,-0.9294 -0.0419,-1.4387 0,-9.1051 4.8879795,-17.1065 12.1837595,-21.46656 a 2.0002,2.0002 0 0 1 2.35187,0.2191 c 2.78952,2.46966 6.4418,3.96746 10.47437,3.96746 4.03258,0 7.684551,-1.4978 10.47407,-3.96746 a 2.0002,2.0002 0 0 1 1.276561,-0.50188 z" fill="#000000" fill-opacity="1" fill-rule="evenodd" stroke="none" marker="none" visibility="visible" display="inline" overflow="visible"/><path style="text-indent:0;text-transform:none;direction:ltr;block-progression:tb;baseline-shift:baseline;color:#000000;enable-background:accumulate;" d="m 31.080114,972.31312 c 7.27132,0 13.21,5.93869 13.21,13.21 0,7.27131 -5.93868,13.21002 -13.21,13.21002 -7.27131,0 -13.21,-5.93871 -13.21,-13.21002 0,-7.27131 5.93869,-13.21 13.21,-13.21 z m 0,4 c -5.10868,0 -9.21,4.10131 -9.21,9.21 0,5.10869 4.101319,9.21 9.21,9.21 5.10869,0 9.21,-4.10131 9.21,-9.21 0,-5.10869 -4.10131,-9.21 -9.21,-9.21 z" fill="#000000" fill-opacity="1" fill-rule="evenodd" stroke="none" marker="none" visibility="visible" display="inline" overflow="visible"/></g><text x="0" y="115" fill="#000000" font-size="5px" font-weight="bold" font-family="'Helvetica Neue', Helvetica, Arial-Unicode, Arial, Sans-serif">Created by AliWijaya</text><text x="0" y="120" fill="#000000" font-size="5px" font-weight="bold" font-family="'Helvetica Neue', Helvetica, Arial-Unicode, Arial, Sans-serif">from the Noun Project</text></svg>